<?xml version="1.0" encoding="UTF-8" standalone="no"?>
<!DOCTYPE svg PUBLIC "-//W3C//DTD SVG 1.1//EN"
 "http://www.w3.org/Graphics/SVG/1.1/DTD/svg11.dtd">
<!-- Generated by graphviz version 8.1.0 (20230707.0739)
 -->
<!-- Title: numeric Pages: 1 -->
<svg width="898pt" height="448pt"
 viewBox="0.00 0.00 898.12 448.00" xmlns="http://www.w3.org/2000/svg" xmlns:xlink="http://www.w3.org/1999/xlink">
<g id="graph0" class="graph" transform="scale(1 1) rotate(0) translate(4 444)">
<title>numeric</title>
<polygon fill="white" stroke="none" points="-4,4 -4,-444 894.12,-444 894.12,4 -4,4"/>
<!-- semigroup -->
<g id="node1" class="node">
<title>semigroup</title>
<polygon fill="none" stroke="black" points="64.25,-365.75 64.25,-414.75 179.25,-414.75 179.25,-365.75 64.25,-365.75"/>
<text text-anchor="middle" x="121.75" y="-397.45" font-family="Times,serif" font-size="14.00">Semigroup</text>
<polyline fill="none" stroke="black" points="64.25,-390.25 179.25,-390.25"/>
<text text-anchor="middle" x="121.75" y="-372.95" font-family="Times,serif" font-size="14.00">(&lt;&gt;) :: a &#45;&gt; a &#45;&gt; a</text>
</g>
<!-- monoid -->
<g id="node2" class="node">
<title>monoid</title>
<polygon fill="none" stroke="black" points="106.38,-230.25 106.38,-279.25 189.12,-279.25 189.12,-230.25 106.38,-230.25"/>
<text text-anchor="middle" x="147.75" y="-261.95" font-family="Times,serif" font-size="14.00">Monoid</text>
<polyline fill="none" stroke="black" points="106.38,-254.75 189.12,-254.75"/>
<text text-anchor="middle" x="147.75" y="-237.45" font-family="Times,serif" font-size="14.00">mempty :: a</text>
</g>
<!-- semigroup&#45;&gt;monoid -->
<g id="edge1" class="edge">
<title>semigroup&#45;&gt;monoid</title>
<path fill="none" stroke="black" d="M126.19,-365.92C129.38,-349.22 133.79,-326.22 137.75,-306 138.8,-300.63 139.92,-294.93 141.03,-289.38"/>
<polygon fill="black" stroke="black" points="144.57,-290.5 143.09,-280.01 137.7,-289.14 144.57,-290.5"/>
</g>
<!-- group -->
<g id="node3" class="node">
<title>group</title>
<polygon fill="none" stroke="black" points="46.62,-111.25 46.62,-160.25 148.88,-160.25 148.88,-111.25 46.62,-111.25"/>
<text text-anchor="middle" x="97.75" y="-142.95" font-family="Times,serif" font-size="14.00">Group</text>
<polyline fill="none" stroke="black" points="46.62,-135.75 148.88,-135.75"/>
<text text-anchor="middle" x="97.75" y="-118.45" font-family="Times,serif" font-size="14.00">inverse :: a &#45;&gt; a</text>
</g>
<!-- monoid&#45;&gt;group -->
<g id="edge2" class="edge">
<title>monoid&#45;&gt;group</title>
<path fill="none" stroke="black" d="M137.75,-230.35C130.36,-213.06 120.19,-189.26 111.96,-169.99"/>
<polygon fill="black" stroke="black" points="114.88,-168.93 107.73,-161.1 108.44,-171.68 114.88,-168.93"/>
</g>
<!-- commutativeMonoid -->
<g id="node4" class="node">
<title>commutativeMonoid</title>
<polygon fill="none" stroke="black" points="143.5,-7 143.5,-43 278,-43 278,-7 143.5,-7"/>
<text text-anchor="middle" x="210.75" y="-20.2" font-family="Times,serif" font-size="14.00">CommutativeMonoid</text>
</g>
<!-- monoid&#45;&gt;commutativeMonoid -->
<g id="edge3" class="edge">
<title>monoid&#45;&gt;commutativeMonoid</title>
<path fill="none" stroke="black" d="M154.14,-230.66C165.85,-188.33 190.69,-98.52 203.21,-53.27"/>
<polygon fill="black" stroke="black" points="206.82,-54.35 206.11,-43.78 200.07,-52.49 206.82,-54.35"/>
</g>
<!-- group&#45;&gt;commutativeMonoid -->
<g id="edge4" class="edge">
<title>group&#45;&gt;commutativeMonoid</title>
<path fill="none" stroke="black" stroke-dasharray="5,2" d="M91.87,-111.44C89.79,-97.61 89.78,-80.43 98.5,-68 101.85,-63.23 123.75,-54.6 147.33,-46.39"/>
<polygon fill="black" stroke="black" points="148.17,-49.46 156.49,-42.91 145.9,-42.84 148.17,-49.46"/>
<text text-anchor="middle" x="146.38" y="-71.2" font-family="Times,serif" font-size="14.00">via Commutative</text>
</g>
<!-- commutativeGroup -->
<g id="node5" class="node">
<title>commutativeGroup</title>
<polygon fill="none" stroke="black" points="0,-7 0,-43 125.5,-43 125.5,-7 0,-7"/>
<text text-anchor="middle" x="62.75" y="-20.2" font-family="Times,serif" font-size="14.00">CommutativeGroup</text>
</g>
<!-- group&#45;&gt;commutativeGroup -->
<g id="edge5" class="edge">
<title>group&#45;&gt;commutativeGroup</title>
<path fill="none" stroke="black" d="M87.02,-111.27C83.45,-102.93 79.65,-93.4 76.75,-84.5 73.48,-74.47 70.61,-63.25 68.33,-53.34"/>
<polygon fill="black" stroke="black" points="71.59,-52.86 66.03,-43.84 64.75,-54.36 71.59,-52.86"/>
</g>
<!-- semiring -->
<g id="node6" class="node">
<title>semiring</title>
<polygon fill="none" stroke="black" points="197.38,-341 197.38,-439.5 304.12,-439.5 304.12,-341 197.38,-341"/>
<text text-anchor="middle" x="250.75" y="-422.2" font-family="Times,serif" font-size="14.00">Semiring</text>
<polyline fill="none" stroke="black" points="197.38,-415 304.12,-415"/>
<text text-anchor="middle" x="250.75" y="-397.7" font-family="Times,serif" font-size="14.00">(+) :: a &#45;&gt; a &#45;&gt; a</text>
<text text-anchor="middle" x="250.75" y="-381.2" font-family="Times,serif" font-size="14.00">one :: a</text>
<text text-anchor="middle" x="250.75" y="-364.7" font-family="Times,serif" font-size="14.00">(*) :: a &#45;&gt; a &#45;&gt; a</text>
<text text-anchor="middle" x="250.75" y="-348.2" font-family="Times,serif" font-size="14.00">zero</text>
</g>
<!-- semiring&#45;&gt;monoid -->
<g id="edge7" class="edge">
<title>semiring&#45;&gt;monoid</title>
<path fill="none" stroke="black" stroke-dasharray="1,5" d="M197.66,-347.5C183.76,-336.2 171.94,-326.08 169.5,-322.5 162.78,-312.66 158.02,-300.6 154.71,-289.45"/>
<polygon fill="black" stroke="black" points="157.92,-288.9 151.95,-280.15 151.15,-290.71 157.92,-288.9"/>
<text text-anchor="middle" x="200.88" y="-309.2" font-family="Times,serif" font-size="14.00">via Product</text>
</g>
<!-- semiring&#45;&gt;commutativeMonoid -->
<g id="edge6" class="edge">
<title>semiring&#45;&gt;commutativeMonoid</title>
<path fill="none" stroke="black" stroke-dasharray="1,5" d="M245.44,-341.01C236.93,-263.78 220.53,-114.82 213.77,-53.45"/>
<polygon fill="black" stroke="black" points="217.16,-53.28 212.59,-43.72 210.21,-54.04 217.16,-53.28"/>
<text text-anchor="middle" x="253.62" y="-190.2" font-family="Times,serif" font-size="14.00">via Sum</text>
</g>
<!-- ring -->
<g id="node7" class="node">
<title>ring</title>
<polygon fill="none" stroke="black" points="281.25,-222 281.25,-287.5 384.25,-287.5 384.25,-222 281.25,-222"/>
<text text-anchor="middle" x="332.75" y="-270.2" font-family="Times,serif" font-size="14.00">Ring</text>
<polyline fill="none" stroke="black" points="281.25,-263 384.25,-263"/>
<text text-anchor="middle" x="332.75" y="-245.7" font-family="Times,serif" font-size="14.00">(&#45;) :: a &#45;&gt; a &#45;&gt; a</text>
<text text-anchor="middle" x="332.75" y="-229.2" font-family="Times,serif" font-size="14.00">negate :: a &#45;&gt; a</text>
</g>
<!-- semiring&#45;&gt;ring -->
<g id="edge8" class="edge">
<title>semiring&#45;&gt;ring</title>
<path fill="none" stroke="black" d="M280.35,-341.05C289.39,-326.35 299.22,-310.34 307.9,-296.2"/>
<polygon fill="black" stroke="black" points="311.17,-298.57 313.42,-288.22 305.2,-294.91 311.17,-298.57"/>
</g>
<!-- divisionRing -->
<g id="node8" class="node">
<title>divisionRing</title>
<polygon fill="none" stroke="black" points="274.12,-103 274.12,-168.5 391.38,-168.5 391.38,-103 274.12,-103"/>
<text text-anchor="middle" x="332.75" y="-151.2" font-family="Times,serif" font-size="14.00">DivisionRing</text>
<polyline fill="none" stroke="black" points="274.12,-144 391.38,-144"/>
<text text-anchor="middle" x="332.75" y="-126.7" font-family="Times,serif" font-size="14.00">(/) :: a &#45;&gt; a &#45;&gt; a</text>
<text text-anchor="middle" x="332.75" y="-110.2" font-family="Times,serif" font-size="14.00">reciprocal :: a &#45;&gt; a</text>
</g>
<!-- ring&#45;&gt;divisionRing -->
<g id="edge9" class="edge">
<title>ring&#45;&gt;divisionRing</title>
<path fill="none" stroke="black" d="M332.75,-222.09C332.75,-208.95 332.75,-193.51 332.75,-179.4"/>
<polygon fill="black" stroke="black" points="336.25,-179.44 332.75,-169.44 329.25,-179.44 336.25,-179.44"/>
</g>
<!-- commutativeRing -->
<g id="node9" class="node">
<title>commutativeRing</title>
<polygon fill="none" stroke="black" points="409.12,-117.75 409.12,-153.75 526.38,-153.75 526.38,-117.75 409.12,-117.75"/>
<text text-anchor="middle" x="467.75" y="-130.95" font-family="Times,serif" font-size="14.00">CommutativeRing</text>
</g>
<!-- ring&#45;&gt;commutativeRing -->
<g id="edge10" class="edge">
<title>ring&#45;&gt;commutativeRing</title>
<path fill="none" stroke="black" d="M369.28,-222.09C391.56,-202.78 419.58,-178.5 440.02,-160.78"/>
<polygon fill="black" stroke="black" points="442.02,-162.81 447.29,-153.62 437.44,-157.52 442.02,-162.81"/>
</g>
<!-- field -->
<g id="node10" class="node">
<title>field</title>
<polygon fill="none" stroke="black" points="345.75,-7 345.75,-43 399.75,-43 399.75,-7 345.75,-7"/>
<text text-anchor="middle" x="372.62" y="-20.2" font-family="Times,serif" font-size="14.00">Field</text>
</g>
<!-- divisionRing&#45;&gt;field -->
<g id="edge12" class="edge">
<title>divisionRing&#45;&gt;field</title>
<path fill="none" stroke="black" d="M344.43,-103C350.25,-87.16 357.23,-68.2 362.8,-53.06"/>
<polygon fill="black" stroke="black" points="366.4,-54.4 366.57,-43.81 359.83,-51.99 366.4,-54.4"/>
</g>
<!-- commutativeRing&#45;&gt;field -->
<g id="edge11" class="edge">
<title>commutativeRing&#45;&gt;field</title>
<path fill="none" stroke="black" d="M452.91,-117.76C437.29,-99.88 412.55,-71.56 394.68,-51.1"/>
<polygon fill="black" stroke="black" points="396.7,-49.1 387.49,-43.87 391.43,-53.71 396.7,-49.1"/>
</g>
<!-- functor -->
<g id="node11" class="node">
<title>functor</title>
<polygon fill="none" stroke="black" points="681.12,-365.75 681.12,-414.75 852.38,-414.75 852.38,-365.75 681.12,-365.75"/>
<text text-anchor="middle" x="766.75" y="-397.45" font-family="Times,serif" font-size="14.00">Functor</text>
<polyline fill="none" stroke="black" points="681.12,-390.25 852.38,-390.25"/>
<text text-anchor="middle" x="766.75" y="-372.95" font-family="Times,serif" font-size="14.00">fmap :: (a &#45;&gt; b) &#45;&gt; f a &#45;&gt; f b</text>
</g>
<!-- applicative -->
<g id="node12" class="node">
<title>applicative</title>
<polygon fill="none" stroke="black" points="675.12,-222 675.12,-287.5 858.38,-287.5 858.38,-222 675.12,-222"/>
<text text-anchor="middle" x="766.75" y="-270.2" font-family="Times,serif" font-size="14.00">Applicative</text>
<polyline fill="none" stroke="black" points="675.12,-263 858.38,-263"/>
<text text-anchor="middle" x="766.75" y="-245.7" font-family="Times,serif" font-size="14.00">pure :: a &#45;&gt; f a</text>
<text text-anchor="middle" x="766.75" y="-229.2" font-family="Times,serif" font-size="14.00">(&lt;*&gt;) :: f (a &#45;&gt; b) &#45;&gt; f a &#45;&gt; f b</text>
</g>
<!-- functor&#45;&gt;applicative -->
<g id="edge13" class="edge">
<title>functor&#45;&gt;applicative</title>
<path fill="none" stroke="black" d="M766.75,-366C766.75,-347.34 766.75,-320.64 766.75,-298.19"/>
<polygon fill="black" stroke="black" points="770.25,-298.24 766.75,-288.24 763.25,-298.24 770.25,-298.24"/>
</g>
<!-- monad -->
<g id="node13" class="node">
<title>monad</title>
<polygon fill="none" stroke="black" points="544.38,-111.25 544.38,-160.25 729.12,-160.25 729.12,-111.25 544.38,-111.25"/>
<text text-anchor="middle" x="636.75" y="-142.95" font-family="Times,serif" font-size="14.00">Monad</text>
<polyline fill="none" stroke="black" points="544.38,-135.75 729.12,-135.75"/>
<text text-anchor="middle" x="636.75" y="-118.45" font-family="Times,serif" font-size="14.00">(=&lt;&lt;) :: (a &#45;&gt; f b) &#45;&gt; f a &#45;&gt; f b</text>
</g>
<!-- applicative&#45;&gt;monad -->
<g id="edge14" class="edge">
<title>applicative&#45;&gt;monad</title>
<path fill="none" stroke="black" d="M731.57,-222.09C712.57,-204.99 689.24,-183.99 670.47,-167.1"/>
<polygon fill="black" stroke="black" points="673.25,-164.99 663.47,-160.9 668.56,-170.19 673.25,-164.99"/>
</g>
<!-- alternative -->
<g id="node14" class="node">
<title>alternative</title>
<polygon fill="none" stroke="black" points="747.38,-103 747.38,-168.5 890.12,-168.5 890.12,-103 747.38,-103"/>
<text text-anchor="middle" x="818.75" y="-151.2" font-family="Times,serif" font-size="14.00">Alternative</text>
<polyline fill="none" stroke="black" points="747.38,-144 890.12,-144"/>
<text text-anchor="middle" x="818.75" y="-126.7" font-family="Times,serif" font-size="14.00">empty :: a</text>
<text text-anchor="middle" x="818.75" y="-110.2" font-family="Times,serif" font-size="14.00">(&lt;|&gt;) :: f a &#45;&gt; f a &#45;&gt; f a</text>
</g>
<!-- applicative&#45;&gt;alternative -->
<g id="edge15" class="edge">
<title>applicative&#45;&gt;alternative</title>
<path fill="none" stroke="black" d="M780.82,-222.09C786.83,-208.56 793.93,-192.59 800.35,-178.15"/>
<polygon fill="black" stroke="black" points="803.8,-180 804.67,-169.44 797.41,-177.15 803.8,-180"/>
</g>
<!-- arrow -->
<g id="node15" class="node">
<title>arrow</title>
<polygon fill="none" stroke="black" points="569.5,-0.5 569.5,-49.5 704,-49.5 704,-0.5 569.5,-0.5"/>
<text text-anchor="middle" x="636.75" y="-32.2" font-family="Times,serif" font-size="14.00">Arrow</text>
<polyline fill="none" stroke="black" points="569.5,-25 704,-25"/>
<text text-anchor="middle" x="636.75" y="-7.7" font-family="Times,serif" font-size="14.00">arr :: (a &#45;&gt; b) &#45;&gt; a b c</text>
</g>
<!-- monad&#45;&gt;arrow -->
<g id="edge16" class="edge">
<title>monad&#45;&gt;arrow</title>
<path fill="none" stroke="black" stroke-dasharray="5,2" d="M636.75,-111.42C636.75,-96.51 636.75,-76.92 636.75,-60.26"/>
<polygon fill="black" stroke="black" points="640.25,-60.29 636.75,-50.29 633.25,-60.29 640.25,-60.29"/>
<text text-anchor="middle" x="664.88" y="-71.2" font-family="Times,serif" font-size="14.00">via Kleisli</text>
</g>
</g>
</svg>
