<?xml version="1.0" encoding="UTF-8" standalone="no"?>
<!DOCTYPE svg PUBLIC "-//W3C//DTD SVG 1.1//EN"
 "http://www.w3.org/Graphics/SVG/1.1/DTD/svg11.dtd">
<!-- Generated by graphviz version 8.1.0 (20230707.0739)
 -->
<!-- Title: numeric Pages: 1 -->
<svg width="817pt" height="522pt"
 viewBox="0.00 0.00 816.62 522.00" xmlns="http://www.w3.org/2000/svg" xmlns:xlink="http://www.w3.org/1999/xlink">
<g id="graph0" class="graph" transform="scale(1 1) rotate(0) translate(4 518)">
<title>numeric</title>
<polygon fill="white" stroke="none" points="-4,4 -4,-518 812.62,-518 812.62,4 -4,4"/>
<!-- semigroup -->
<g id="node1" class="node">
<title>semigroup</title>
<polygon fill="none" stroke="black" points="69.75,-336.25 69.75,-385.25 184.75,-385.25 184.75,-336.25 69.75,-336.25"/>
<text text-anchor="middle" x="127.25" y="-367.95" font-family="Times,serif" font-size="14.00">Semigroup</text>
<polyline fill="none" stroke="black" points="69.75,-360.75 184.75,-360.75"/>
<text text-anchor="middle" x="127.25" y="-343.45" font-family="Times,serif" font-size="14.00">(&lt;&gt;) :: a &#45;&gt; a &#45;&gt; a</text>
</g>
<!-- monoid -->
<g id="node2" class="node">
<title>monoid</title>
<polygon fill="none" stroke="black" points="97.88,-217.25 97.88,-266.25 180.62,-266.25 180.62,-217.25 97.88,-217.25"/>
<text text-anchor="middle" x="139.25" y="-248.95" font-family="Times,serif" font-size="14.00">Monoid</text>
<polyline fill="none" stroke="black" points="97.88,-241.75 180.62,-241.75"/>
<text text-anchor="middle" x="139.25" y="-224.45" font-family="Times,serif" font-size="14.00">mempty :: a</text>
</g>
<!-- semigroup&#45;&gt;monoid -->
<g id="edge1" class="edge">
<title>semigroup&#45;&gt;monoid</title>
<path fill="none" stroke="black" d="M129.65,-336.35C131.4,-319.3 133.8,-295.92 135.76,-276.79"/>
<polygon fill="black" stroke="black" points="139.32,-277.41 136.85,-267.1 132.35,-276.7 139.32,-277.41"/>
</g>
<!-- group -->
<g id="node3" class="node">
<title>group</title>
<polygon fill="none" stroke="black" points="97.12,-98.25 97.12,-147.25 199.38,-147.25 199.38,-98.25 97.12,-98.25"/>
<text text-anchor="middle" x="148.25" y="-129.95" font-family="Times,serif" font-size="14.00">Group</text>
<polyline fill="none" stroke="black" points="97.12,-122.75 199.38,-122.75"/>
<text text-anchor="middle" x="148.25" y="-105.45" font-family="Times,serif" font-size="14.00">inverse :: a &#45;&gt; a</text>
</g>
<!-- monoid&#45;&gt;group -->
<g id="edge2" class="edge">
<title>monoid&#45;&gt;group</title>
<path fill="none" stroke="black" d="M141.05,-217.35C142.36,-200.38 144.14,-177.14 145.61,-158.06"/>
<polygon fill="black" stroke="black" points="149.18,-158.34 146.45,-148.1 142.2,-157.81 149.18,-158.34"/>
</g>
<!-- commutativeMonoid -->
<g id="node4" class="node">
<title>commutativeMonoid</title>
<polygon fill="none" stroke="black" points="0,-0.5 0,-36.5 134.5,-36.5 134.5,-0.5 0,-0.5"/>
<text text-anchor="middle" x="67.25" y="-13.7" font-family="Times,serif" font-size="14.00">CommutativeMonoid</text>
</g>
<!-- monoid&#45;&gt;commutativeMonoid -->
<g id="edge3" class="edge">
<title>monoid&#45;&gt;commutativeMonoid</title>
<path fill="none" stroke="black" d="M121.87,-217.53C110.5,-201.17 96.31,-178.28 88.25,-156 75.13,-119.74 70.21,-75.16 68.36,-47.03"/>
<polygon fill="black" stroke="black" points="71.82,-47.19 67.76,-37.4 64.83,-47.58 71.82,-47.19"/>
</g>
<!-- group&#45;&gt;commutativeMonoid -->
<g id="edge4" class="edge">
<title>group&#45;&gt;commutativeMonoid</title>
<path fill="none" stroke="black" stroke-dasharray="5,2" d="M125.35,-98.39C117.65,-90.14 109.18,-80.63 102,-71.5 95.56,-63.32 89.07,-53.96 83.47,-45.47"/>
<polygon fill="black" stroke="black" points="85.94,-43.85 77.57,-37.35 80.06,-47.65 85.94,-43.85"/>
<text text-anchor="middle" x="149.88" y="-58.2" font-family="Times,serif" font-size="14.00">via Commutative</text>
</g>
<!-- commutativeGroup -->
<g id="node5" class="node">
<title>commutativeGroup</title>
<polygon fill="none" stroke="black" points="152.5,-0.5 152.5,-36.5 278,-36.5 278,-0.5 152.5,-0.5"/>
<text text-anchor="middle" x="215.25" y="-13.7" font-family="Times,serif" font-size="14.00">CommutativeGroup</text>
</g>
<!-- group&#45;&gt;commutativeGroup -->
<g id="edge5" class="edge">
<title>group&#45;&gt;commutativeGroup</title>
<path fill="none" stroke="black" d="M178.56,-98.39C186.94,-90.63 195.34,-81.41 201.25,-71.5 205.66,-64.1 208.71,-55.29 210.81,-47.05"/>
<polygon fill="black" stroke="black" points="214.43,-47.85 213.11,-37.34 207.58,-46.38 214.43,-47.85"/>
</g>
<!-- nearsemiring -->
<g id="node6" class="node">
<title>nearsemiring</title>
<polygon fill="none" stroke="black" points="28.88,-431.5 28.88,-513.5 135.62,-513.5 135.62,-431.5 28.88,-431.5"/>
<text text-anchor="middle" x="82.25" y="-496.2" font-family="Times,serif" font-size="14.00">NearSemiring</text>
<polyline fill="none" stroke="black" points="28.88,-489 135.62,-489"/>
<text text-anchor="middle" x="82.25" y="-471.7" font-family="Times,serif" font-size="14.00">(+) :: a &#45;&gt; a &#45;&gt; a</text>
<text text-anchor="middle" x="82.25" y="-455.2" font-family="Times,serif" font-size="14.00">(*) :: a &#45;&gt; a &#45;&gt; a</text>
<text text-anchor="middle" x="82.25" y="-438.7" font-family="Times,serif" font-size="14.00">zero</text>
</g>
<!-- nearsemiring&#45;&gt;commutativeMonoid -->
<g id="edge6" class="edge">
<title>nearsemiring&#45;&gt;commutativeMonoid</title>
<path fill="none" stroke="black" stroke-dasharray="1,5" d="M53.62,-431.57C41.99,-411.58 31.25,-386.44 31.25,-361.75 31.25,-361.75 31.25,-361.75 31.25,-121.75 31.25,-94.83 42.49,-66.06 52.41,-45.92"/>
<polygon fill="black" stroke="black" points="55.94,-47.72 57.41,-37.23 49.72,-44.51 55.94,-47.72"/>
<text text-anchor="middle" x="54.12" y="-236.7" font-family="Times,serif" font-size="14.00">via Sum</text>
</g>
<!-- semiring -->
<g id="node7" class="node">
<title>semiring</title>
<polygon fill="none" stroke="black" points="203.12,-336.25 203.12,-385.25 269.38,-385.25 269.38,-336.25 203.12,-336.25"/>
<text text-anchor="middle" x="236.25" y="-367.95" font-family="Times,serif" font-size="14.00">Semiring</text>
<polyline fill="none" stroke="black" points="203.12,-360.75 269.38,-360.75"/>
<text text-anchor="middle" x="236.25" y="-343.45" font-family="Times,serif" font-size="14.00">one :: a</text>
</g>
<!-- nearsemiring&#45;&gt;semiring -->
<g id="edge7" class="edge">
<title>nearsemiring&#45;&gt;semiring</title>
<path fill="none" stroke="black" d="M135.58,-434.81C153.95,-422.03 174.59,-407.5 193.25,-394 194.36,-393.2 195.48,-392.39 196.6,-391.56"/>
<polygon fill="black" stroke="black" points="198.36,-393.88 204.34,-385.13 194.21,-388.24 198.36,-393.88"/>
</g>
<!-- semiring&#45;&gt;monoid -->
<g id="edge8" class="edge">
<title>semiring&#45;&gt;monoid</title>
<path fill="none" stroke="black" stroke-dasharray="1,5" d="M212.5,-336.33C204.47,-328.07 195.62,-318.58 188,-309.5 178.83,-298.57 169.43,-286.06 161.36,-274.85"/>
<polygon fill="black" stroke="black" points="163.85,-273.31 155.21,-267.19 158.15,-277.37 163.85,-273.31"/>
<text text-anchor="middle" x="219.38" y="-296.2" font-family="Times,serif" font-size="14.00">via Product</text>
</g>
<!-- ring -->
<g id="node8" class="node">
<title>ring</title>
<polygon fill="none" stroke="black" points="224.75,-209 224.75,-274.5 327.75,-274.5 327.75,-209 224.75,-209"/>
<text text-anchor="middle" x="276.25" y="-257.2" font-family="Times,serif" font-size="14.00">Ring</text>
<polyline fill="none" stroke="black" points="224.75,-250 327.75,-250"/>
<text text-anchor="middle" x="276.25" y="-232.7" font-family="Times,serif" font-size="14.00">(&#45;) :: a &#45;&gt; a &#45;&gt; a</text>
<text text-anchor="middle" x="276.25" y="-216.2" font-family="Times,serif" font-size="14.00">negate :: a &#45;&gt; a</text>
</g>
<!-- semiring&#45;&gt;ring -->
<g id="edge9" class="edge">
<title>semiring&#45;&gt;ring</title>
<path fill="none" stroke="black" d="M244.25,-336.35C249.36,-321.41 256.12,-301.63 262.11,-284.1"/>
<polygon fill="black" stroke="black" points="265.61,-285.68 265.54,-275.09 258.99,-283.42 265.61,-285.68"/>
</g>
<!-- divisionRing -->
<g id="node9" class="node">
<title>divisionRing</title>
<polygon fill="none" stroke="black" points="352.62,-90 352.62,-155.5 469.88,-155.5 469.88,-90 352.62,-90"/>
<text text-anchor="middle" x="411.25" y="-138.2" font-family="Times,serif" font-size="14.00">DivisionRing</text>
<polyline fill="none" stroke="black" points="352.62,-131 469.88,-131"/>
<text text-anchor="middle" x="411.25" y="-113.7" font-family="Times,serif" font-size="14.00">(/) :: a &#45;&gt; a &#45;&gt; a</text>
<text text-anchor="middle" x="411.25" y="-97.2" font-family="Times,serif" font-size="14.00">reciprocal :: a &#45;&gt; a</text>
</g>
<!-- ring&#45;&gt;divisionRing -->
<g id="edge10" class="edge">
<title>ring&#45;&gt;divisionRing</title>
<path fill="none" stroke="black" d="M312.78,-209.09C329.44,-194.65 349.31,-177.43 366.83,-162.25"/>
<polygon fill="black" stroke="black" points="368.42,-164.63 373.69,-155.44 363.84,-159.34 368.42,-164.63"/>
</g>
<!-- commutativeRing -->
<g id="node10" class="node">
<title>commutativeRing</title>
<polygon fill="none" stroke="black" points="217.62,-104.75 217.62,-140.75 334.88,-140.75 334.88,-104.75 217.62,-104.75"/>
<text text-anchor="middle" x="276.25" y="-117.95" font-family="Times,serif" font-size="14.00">CommutativeRing</text>
</g>
<!-- ring&#45;&gt;commutativeRing -->
<g id="edge11" class="edge">
<title>ring&#45;&gt;commutativeRing</title>
<path fill="none" stroke="black" d="M276.25,-209.09C276.25,-190.99 276.25,-168.52 276.25,-151.18"/>
<polygon fill="black" stroke="black" points="279.75,-151.62 276.25,-141.62 272.75,-151.62 279.75,-151.62"/>
</g>
<!-- field -->
<g id="node11" class="node">
<title>field</title>
<polygon fill="none" stroke="black" points="341.25,-0.5 341.25,-36.5 395.25,-36.5 395.25,-0.5 341.25,-0.5"/>
<text text-anchor="middle" x="368.12" y="-13.7" font-family="Times,serif" font-size="14.00">Field</text>
</g>
<!-- divisionRing&#45;&gt;field -->
<g id="edge13" class="edge">
<title>divisionRing&#45;&gt;field</title>
<path fill="none" stroke="black" d="M398,-90.24C392.12,-76.25 385.27,-59.96 379.62,-46.54"/>
<polygon fill="black" stroke="black" points="382.5,-45.36 375.4,-37.49 376.05,-48.07 382.5,-45.36"/>
</g>
<!-- commutativeRing&#45;&gt;field -->
<g id="edge12" class="edge">
<title>commutativeRing&#45;&gt;field</title>
<path fill="none" stroke="black" d="M291.44,-104.87C306.22,-88.44 328.86,-63.28 345.74,-44.52"/>
<polygon fill="black" stroke="black" points="347.95,-47.18 352.04,-37.41 342.74,-42.5 347.95,-47.18"/>
</g>
<!-- functor -->
<g id="node12" class="node">
<title>functor</title>
<polygon fill="none" stroke="black" points="605.62,-448 605.62,-497 776.88,-497 776.88,-448 605.62,-448"/>
<text text-anchor="middle" x="691.25" y="-479.7" font-family="Times,serif" font-size="14.00">Functor</text>
<polyline fill="none" stroke="black" points="605.62,-472.5 776.88,-472.5"/>
<text text-anchor="middle" x="691.25" y="-455.2" font-family="Times,serif" font-size="14.00">fmap :: (a &#45;&gt; b) &#45;&gt; f a &#45;&gt; f b</text>
</g>
<!-- applicative -->
<g id="node13" class="node">
<title>applicative</title>
<polygon fill="none" stroke="black" points="599.62,-328 599.62,-393.5 782.88,-393.5 782.88,-328 599.62,-328"/>
<text text-anchor="middle" x="691.25" y="-376.2" font-family="Times,serif" font-size="14.00">Applicative</text>
<polyline fill="none" stroke="black" points="599.62,-369 782.88,-369"/>
<text text-anchor="middle" x="691.25" y="-351.7" font-family="Times,serif" font-size="14.00">pure :: a &#45;&gt; f a</text>
<text text-anchor="middle" x="691.25" y="-335.2" font-family="Times,serif" font-size="14.00">(&lt;*&gt;) :: f (a &#45;&gt; b) &#45;&gt; f a &#45;&gt; f b</text>
</g>
<!-- functor&#45;&gt;applicative -->
<g id="edge14" class="edge">
<title>functor&#45;&gt;applicative</title>
<path fill="none" stroke="black" d="M691.25,-448.22C691.25,-435.36 691.25,-418.99 691.25,-403.96"/>
<polygon fill="black" stroke="black" points="694.75,-404.32 691.25,-394.32 687.75,-404.32 694.75,-404.32"/>
</g>
<!-- monad -->
<g id="node14" class="node">
<title>monad</title>
<polygon fill="none" stroke="black" points="462.88,-217.25 462.88,-266.25 647.62,-266.25 647.62,-217.25 462.88,-217.25"/>
<text text-anchor="middle" x="555.25" y="-248.95" font-family="Times,serif" font-size="14.00">Monad</text>
<polyline fill="none" stroke="black" points="462.88,-241.75 647.62,-241.75"/>
<text text-anchor="middle" x="555.25" y="-224.45" font-family="Times,serif" font-size="14.00">(=&lt;&lt;) :: (a &#45;&gt; f b) &#45;&gt; f a &#45;&gt; f b</text>
</g>
<!-- applicative&#45;&gt;monad -->
<g id="edge15" class="edge">
<title>applicative&#45;&gt;monad</title>
<path fill="none" stroke="black" d="M654.45,-328.09C634.48,-310.92 609.94,-289.8 590.27,-272.87"/>
<polygon fill="black" stroke="black" points="593.02,-269.77 583.16,-265.9 588.46,-275.07 593.02,-269.77"/>
</g>
<!-- alternative -->
<g id="node15" class="node">
<title>alternative</title>
<polygon fill="none" stroke="black" points="665.88,-209 665.88,-274.5 808.62,-274.5 808.62,-209 665.88,-209"/>
<text text-anchor="middle" x="737.25" y="-257.2" font-family="Times,serif" font-size="14.00">Alternative</text>
<polyline fill="none" stroke="black" points="665.88,-250 808.62,-250"/>
<text text-anchor="middle" x="737.25" y="-232.7" font-family="Times,serif" font-size="14.00">empty :: a</text>
<text text-anchor="middle" x="737.25" y="-216.2" font-family="Times,serif" font-size="14.00">(&lt;|&gt;) :: f a &#45;&gt; f a &#45;&gt; f a</text>
</g>
<!-- applicative&#45;&gt;alternative -->
<g id="edge16" class="edge">
<title>applicative&#45;&gt;alternative</title>
<path fill="none" stroke="black" d="M703.7,-328.09C708.97,-314.69 715.17,-298.9 720.81,-284.56"/>
<polygon fill="black" stroke="black" points="724.39,-286.02 724.79,-275.44 717.88,-283.46 724.39,-286.02"/>
</g>
<!-- arrow -->
<g id="node16" class="node">
<title>arrow</title>
<polygon fill="none" stroke="black" points="488,-98.25 488,-147.25 622.5,-147.25 622.5,-98.25 488,-98.25"/>
<text text-anchor="middle" x="555.25" y="-129.95" font-family="Times,serif" font-size="14.00">Arrow</text>
<polyline fill="none" stroke="black" points="488,-122.75 622.5,-122.75"/>
<text text-anchor="middle" x="555.25" y="-105.45" font-family="Times,serif" font-size="14.00">arr :: (a &#45;&gt; b) &#45;&gt; a b c</text>
</g>
<!-- monad&#45;&gt;arrow -->
<g id="edge17" class="edge">
<title>monad&#45;&gt;arrow</title>
<path fill="none" stroke="black" stroke-dasharray="5,2" d="M555.25,-217.35C555.25,-200.38 555.25,-177.14 555.25,-158.06"/>
<polygon fill="black" stroke="black" points="558.75,-158.1 555.25,-148.1 551.75,-158.1 558.75,-158.1"/>
<text text-anchor="middle" x="583.38" y="-177.2" font-family="Times,serif" font-size="14.00">via Kleisli</text>
</g>
</g>
</svg>
