<?xml version="1.0" encoding="UTF-8" standalone="no"?>
<!DOCTYPE svg PUBLIC "-//W3C//DTD SVG 1.1//EN"
 "http://www.w3.org/Graphics/SVG/1.1/DTD/svg11.dtd">
<!-- Generated by graphviz version 8.1.0 (20230707.0739)
 -->
<!-- Title: numeric Pages: 1 -->
<svg width="1001pt" height="522pt"
 viewBox="0.00 0.00 1001.04 522.00" xmlns="http://www.w3.org/2000/svg" xmlns:xlink="http://www.w3.org/1999/xlink">
<g id="graph0" class="graph" transform="scale(1 1) rotate(0) translate(4 518)">
<title>numeric</title>
<polygon fill="white" stroke="none" points="-4,4 -4,-518 997.04,-518 997.04,4 -4,4"/>
<!-- semigroup -->
<g id="node1" class="node">
<title>semigroup</title>
<polygon fill="none" stroke="black" points="136.17,-439.75 136.17,-488.75 251.17,-488.75 251.17,-439.75 136.17,-439.75"/>
<text text-anchor="middle" x="193.67" y="-471.45" font-family="Times,serif" font-size="14.00">Semigroup</text>
<polyline fill="none" stroke="black" points="136.17,-464.25 251.17,-464.25"/>
<text text-anchor="middle" x="193.67" y="-446.95" font-family="Times,serif" font-size="14.00">(&lt;&gt;) :: a &#45;&gt; a &#45;&gt; a</text>
</g>
<!-- monoid -->
<g id="node2" class="node">
<title>monoid</title>
<polygon fill="none" stroke="black" points="178.29,-304.25 178.29,-353.25 261.04,-353.25 261.04,-304.25 178.29,-304.25"/>
<text text-anchor="middle" x="219.67" y="-335.95" font-family="Times,serif" font-size="14.00">Monoid</text>
<polyline fill="none" stroke="black" points="178.29,-328.75 261.04,-328.75"/>
<text text-anchor="middle" x="219.67" y="-311.45" font-family="Times,serif" font-size="14.00">mempty :: a</text>
</g>
<!-- semigroup&#45;&gt;monoid -->
<g id="edge1" class="edge">
<title>semigroup&#45;&gt;monoid</title>
<path fill="none" stroke="black" d="M198.11,-439.92C201.3,-423.22 205.71,-400.22 209.67,-380 210.72,-374.63 211.84,-368.93 212.94,-363.38"/>
<polygon fill="black" stroke="black" points="216.49,-364.5 215.01,-354.01 209.62,-363.14 216.49,-364.5"/>
</g>
<!-- group -->
<g id="node3" class="node">
<title>group</title>
<polygon fill="none" stroke="black" points="125.54,-200.75 125.54,-249.75 227.79,-249.75 227.79,-200.75 125.54,-200.75"/>
<text text-anchor="middle" x="176.67" y="-232.45" font-family="Times,serif" font-size="14.00">Group</text>
<polyline fill="none" stroke="black" points="125.54,-225.25 227.79,-225.25"/>
<text text-anchor="middle" x="176.67" y="-207.95" font-family="Times,serif" font-size="14.00">inverse :: a &#45;&gt; a</text>
</g>
<!-- monoid&#45;&gt;group -->
<g id="edge2" class="edge">
<title>monoid&#45;&gt;group</title>
<path fill="none" stroke="black" d="M209.8,-304.46C204.12,-291.05 196.89,-273.98 190.63,-259.21"/>
<polygon fill="black" stroke="black" points="193.61,-258.27 186.49,-250.43 187.16,-261 193.61,-258.27"/>
</g>
<!-- commutativeMonoid -->
<g id="node4" class="node">
<title>commutativeMonoid</title>
<polygon fill="none" stroke="black" points="145.42,-0.5 145.42,-36.5 279.92,-36.5 279.92,-0.5 145.42,-0.5"/>
<text text-anchor="middle" x="212.67" y="-13.7" font-family="Times,serif" font-size="14.00">CommutativeMonoid</text>
</g>
<!-- monoid&#45;&gt;commutativeMonoid -->
<g id="edge3" class="edge">
<title>monoid&#45;&gt;commutativeMonoid</title>
<path fill="none" stroke="black" d="M226.23,-304.52C229.79,-291.16 234,-273.99 236.67,-258.5 250.84,-176.26 250.61,-154.9 253.67,-71.5 253.94,-64.17 256.72,-61.67 253.67,-55 251.87,-51.07 249.4,-47.4 246.55,-44.03"/>
<polygon fill="black" stroke="black" points="249.4,-41.93 239.87,-37.3 244.43,-46.86 249.4,-41.93"/>
</g>
<!-- group&#45;&gt;commutativeMonoid -->
<g id="edge4" class="edge">
<title>group&#45;&gt;commutativeMonoid</title>
<path fill="none" stroke="black" stroke-dasharray="5,2" d="M125.65,-208.27C63.6,-186.09 -28.47,-142.63 9.42,-89.5 37.75,-49.78 90.14,-32.37 134.64,-24.85"/>
<polygon fill="black" stroke="black" points="135.11,-28.16 144.46,-23.18 134.05,-21.24 135.11,-28.16"/>
<text text-anchor="middle" x="57.29" y="-109.45" font-family="Times,serif" font-size="14.00">via Commutative</text>
</g>
<!-- commutativeGroup -->
<g id="node5" class="node">
<title>commutativeGroup</title>
<polygon fill="none" stroke="black" points="113.92,-96.5 113.92,-132.5 239.42,-132.5 239.42,-96.5 113.92,-96.5"/>
<text text-anchor="middle" x="176.67" y="-109.7" font-family="Times,serif" font-size="14.00">CommutativeGroup</text>
</g>
<!-- group&#45;&gt;commutativeGroup -->
<g id="edge5" class="edge">
<title>group&#45;&gt;commutativeGroup</title>
<path fill="none" stroke="black" d="M176.67,-200.92C176.67,-184.03 176.67,-161.12 176.67,-143.28"/>
<polygon fill="black" stroke="black" points="180.17,-143.4 176.67,-133.4 173.17,-143.4 180.17,-143.4"/>
</g>
<!-- commutativeGroup&#45;&gt;commutativeMonoid -->
<g id="edge6" class="edge">
<title>commutativeGroup&#45;&gt;commutativeMonoid</title>
<path fill="none" stroke="black" stroke-dasharray="5,2" d="M164.61,-96.68C157.54,-84.6 151.28,-68.2 158.42,-55 160.77,-50.65 163.91,-46.75 167.51,-43.27"/>
<polygon fill="black" stroke="black" points="169.46,-45.37 174.96,-36.31 165.01,-39.96 169.46,-45.37"/>
<text text-anchor="middle" x="206.29" y="-58.2" font-family="Times,serif" font-size="14.00">via Commutative</text>
</g>
<!-- semiring -->
<g id="node6" class="node">
<title>semiring</title>
<polygon fill="none" stroke="black" points="269.29,-415 269.29,-513.5 376.04,-513.5 376.04,-415 269.29,-415"/>
<text text-anchor="middle" x="322.67" y="-496.2" font-family="Times,serif" font-size="14.00">Semiring</text>
<polyline fill="none" stroke="black" points="269.29,-489 376.04,-489"/>
<text text-anchor="middle" x="322.67" y="-471.7" font-family="Times,serif" font-size="14.00">(+) :: a &#45;&gt; a &#45;&gt; a</text>
<text text-anchor="middle" x="322.67" y="-455.2" font-family="Times,serif" font-size="14.00">one :: a</text>
<text text-anchor="middle" x="322.67" y="-438.7" font-family="Times,serif" font-size="14.00">(*) :: a &#45;&gt; a &#45;&gt; a</text>
<text text-anchor="middle" x="322.67" y="-422.2" font-family="Times,serif" font-size="14.00">zero</text>
</g>
<!-- semiring&#45;&gt;monoid -->
<g id="edge8" class="edge">
<title>semiring&#45;&gt;monoid</title>
<path fill="none" stroke="black" stroke-dasharray="1,5" d="M269.39,-422.05C252.56,-408.94 238.1,-397.53 237.42,-396.5 231.03,-386.82 226.93,-374.92 224.31,-363.86"/>
<polygon fill="black" stroke="black" points="227.57,-363.31 222.15,-354.2 220.71,-364.7 227.57,-363.31"/>
<text text-anchor="middle" x="268.79" y="-383.2" font-family="Times,serif" font-size="14.00">via Product</text>
</g>
<!-- semiring&#45;&gt;commutativeMonoid -->
<g id="edge7" class="edge">
<title>semiring&#45;&gt;commutativeMonoid</title>
<path fill="none" stroke="black" stroke-dasharray="1,5" d="M317.85,-415.1C315.71,-389.74 313.67,-358.09 313.67,-329.75 313.67,-329.75 313.67,-329.75 313.67,-113.5 313.67,-81.82 286.71,-57.78 260.65,-41.95"/>
<polygon fill="black" stroke="black" points="262.55,-38.43 252.14,-36.49 259.07,-44.5 262.55,-38.43"/>
<text text-anchor="middle" x="336.54" y="-220.2" font-family="Times,serif" font-size="14.00">via Sum</text>
</g>
<!-- ring -->
<g id="node7" class="node">
<title>ring</title>
<polygon fill="none" stroke="black" points="384.17,-296 384.17,-361.5 487.17,-361.5 487.17,-296 384.17,-296"/>
<text text-anchor="middle" x="435.67" y="-344.2" font-family="Times,serif" font-size="14.00">Ring</text>
<polyline fill="none" stroke="black" points="384.17,-337 487.17,-337"/>
<text text-anchor="middle" x="435.67" y="-319.7" font-family="Times,serif" font-size="14.00">(&#45;) :: a &#45;&gt; a &#45;&gt; a</text>
<text text-anchor="middle" x="435.67" y="-303.2" font-family="Times,serif" font-size="14.00">negate :: a &#45;&gt; a</text>
</g>
<!-- semiring&#45;&gt;ring -->
<g id="edge9" class="edge">
<title>semiring&#45;&gt;ring</title>
<path fill="none" stroke="black" d="M363.46,-415.05C376.15,-400.07 389.98,-383.73 402.11,-369.4"/>
<polygon fill="black" stroke="black" points="405.24,-372.11 409.03,-362.22 399.9,-367.59 405.24,-372.11"/>
</g>
<!-- divisionRing -->
<g id="node8" class="node">
<title>divisionRing</title>
<polygon fill="none" stroke="black" points="377.04,-192.5 377.04,-258 494.29,-258 494.29,-192.5 377.04,-192.5"/>
<text text-anchor="middle" x="435.67" y="-240.7" font-family="Times,serif" font-size="14.00">DivisionRing</text>
<polyline fill="none" stroke="black" points="377.04,-233.5 494.29,-233.5"/>
<text text-anchor="middle" x="435.67" y="-216.2" font-family="Times,serif" font-size="14.00">(/) :: a &#45;&gt; a &#45;&gt; a</text>
<text text-anchor="middle" x="435.67" y="-199.7" font-family="Times,serif" font-size="14.00">reciprocal :: a &#45;&gt; a</text>
</g>
<!-- ring&#45;&gt;divisionRing -->
<g id="edge10" class="edge">
<title>ring&#45;&gt;divisionRing</title>
<path fill="none" stroke="black" d="M435.67,-296.19C435.67,-287.5 435.67,-277.93 435.67,-268.74"/>
<polygon fill="black" stroke="black" points="439.17,-268.79 435.67,-258.79 432.17,-268.79 439.17,-268.79"/>
</g>
<!-- commutativeRing -->
<g id="node9" class="node">
<title>commutativeRing</title>
<polygon fill="none" stroke="black" points="512.04,-207.25 512.04,-243.25 629.29,-243.25 629.29,-207.25 512.04,-207.25"/>
<text text-anchor="middle" x="570.67" y="-220.45" font-family="Times,serif" font-size="14.00">CommutativeRing</text>
</g>
<!-- ring&#45;&gt;commutativeRing -->
<g id="edge11" class="edge">
<title>ring&#45;&gt;commutativeRing</title>
<path fill="none" stroke="black" d="M477.64,-296.19C497.73,-281.09 521.36,-263.33 539.77,-249.48"/>
<polygon fill="black" stroke="black" points="541.46,-251.83 547.35,-243.03 537.26,-246.24 541.46,-251.83"/>
</g>
<!-- field -->
<g id="node10" class="node">
<title>field</title>
<polygon fill="none" stroke="black" points="461.67,-96.5 461.67,-132.5 515.67,-132.5 515.67,-96.5 461.67,-96.5"/>
<text text-anchor="middle" x="488.54" y="-109.7" font-family="Times,serif" font-size="14.00">Field</text>
</g>
<!-- divisionRing&#45;&gt;field -->
<g id="edge13" class="edge">
<title>divisionRing&#45;&gt;field</title>
<path fill="none" stroke="black" d="M451.14,-192.5C458.93,-176.51 468.28,-157.33 475.69,-142.12"/>
<polygon fill="black" stroke="black" points="479.24,-143.83 480.48,-133.31 472.95,-140.76 479.24,-143.83"/>
</g>
<!-- commutativeRing&#45;&gt;field -->
<g id="edge12" class="edge">
<title>commutativeRing&#45;&gt;field</title>
<path fill="none" stroke="black" d="M557.85,-207.26C544.5,-189.54 523.4,-161.56 508.01,-141.15"/>
<polygon fill="black" stroke="black" points="510.21,-139.25 501.39,-133.37 504.62,-143.46 510.21,-139.25"/>
</g>
<!-- functor -->
<g id="node11" class="node">
<title>functor</title>
<polygon fill="none" stroke="black" points="790.04,-439.75 790.04,-488.75 961.29,-488.75 961.29,-439.75 790.04,-439.75"/>
<text text-anchor="middle" x="875.67" y="-471.45" font-family="Times,serif" font-size="14.00">Functor</text>
<polyline fill="none" stroke="black" points="790.04,-464.25 961.29,-464.25"/>
<text text-anchor="middle" x="875.67" y="-446.95" font-family="Times,serif" font-size="14.00">fmap :: (a &#45;&gt; b) &#45;&gt; f a &#45;&gt; f b</text>
</g>
<!-- applicative -->
<g id="node12" class="node">
<title>applicative</title>
<polygon fill="none" stroke="black" points="784.04,-296 784.04,-361.5 967.29,-361.5 967.29,-296 784.04,-296"/>
<text text-anchor="middle" x="875.67" y="-344.2" font-family="Times,serif" font-size="14.00">Applicative</text>
<polyline fill="none" stroke="black" points="784.04,-337 967.29,-337"/>
<text text-anchor="middle" x="875.67" y="-319.7" font-family="Times,serif" font-size="14.00">pure :: a &#45;&gt; f a</text>
<text text-anchor="middle" x="875.67" y="-303.2" font-family="Times,serif" font-size="14.00">(&lt;*&gt;) :: f (a &#45;&gt; b) &#45;&gt; f a &#45;&gt; f b</text>
</g>
<!-- functor&#45;&gt;applicative -->
<g id="edge14" class="edge">
<title>functor&#45;&gt;applicative</title>
<path fill="none" stroke="black" d="M875.67,-440C875.67,-421.34 875.67,-394.64 875.67,-372.19"/>
<polygon fill="black" stroke="black" points="879.17,-372.24 875.67,-362.24 872.17,-372.24 879.17,-372.24"/>
</g>
<!-- monad -->
<g id="node13" class="node">
<title>monad</title>
<polygon fill="none" stroke="black" points="647.29,-200.75 647.29,-249.75 832.04,-249.75 832.04,-200.75 647.29,-200.75"/>
<text text-anchor="middle" x="739.67" y="-232.45" font-family="Times,serif" font-size="14.00">Monad</text>
<polyline fill="none" stroke="black" points="647.29,-225.25 832.04,-225.25"/>
<text text-anchor="middle" x="739.67" y="-207.95" font-family="Times,serif" font-size="14.00">(=&lt;&lt;) :: (a &#45;&gt; f b) &#45;&gt; f a &#45;&gt; f b</text>
</g>
<!-- applicative&#45;&gt;monad -->
<g id="edge15" class="edge">
<title>applicative&#45;&gt;monad</title>
<path fill="none" stroke="black" d="M833.38,-296.19C816.25,-283.41 796.57,-268.71 779.67,-256.11"/>
<polygon fill="black" stroke="black" points="782.23,-252.9 772.12,-249.73 778.04,-258.51 782.23,-252.9"/>
</g>
<!-- alternative -->
<g id="node14" class="node">
<title>alternative</title>
<polygon fill="none" stroke="black" points="850.29,-192.5 850.29,-258 993.04,-258 993.04,-192.5 850.29,-192.5"/>
<text text-anchor="middle" x="921.67" y="-240.7" font-family="Times,serif" font-size="14.00">Alternative</text>
<polyline fill="none" stroke="black" points="850.29,-233.5 993.04,-233.5"/>
<text text-anchor="middle" x="921.67" y="-216.2" font-family="Times,serif" font-size="14.00">empty :: a</text>
<text text-anchor="middle" x="921.67" y="-199.7" font-family="Times,serif" font-size="14.00">(&lt;|&gt;) :: f a &#45;&gt; f a &#45;&gt; f a</text>
</g>
<!-- applicative&#45;&gt;alternative -->
<g id="edge16" class="edge">
<title>applicative&#45;&gt;alternative</title>
<path fill="none" stroke="black" d="M889.97,-296.19C894.08,-287.12 898.63,-277.09 902.96,-267.53"/>
<polygon fill="black" stroke="black" points="906.43,-269.34 907.37,-258.79 900.06,-266.45 906.43,-269.34"/>
</g>
<!-- arrow -->
<g id="node15" class="node">
<title>arrow</title>
<polygon fill="none" stroke="black" points="672.42,-90 672.42,-139 806.92,-139 806.92,-90 672.42,-90"/>
<text text-anchor="middle" x="739.67" y="-121.7" font-family="Times,serif" font-size="14.00">Arrow</text>
<polyline fill="none" stroke="black" points="672.42,-114.5 806.92,-114.5"/>
<text text-anchor="middle" x="739.67" y="-97.2" font-family="Times,serif" font-size="14.00">arr :: (a &#45;&gt; b) &#45;&gt; a b c</text>
</g>
<!-- monad&#45;&gt;arrow -->
<g id="edge17" class="edge">
<title>monad&#45;&gt;arrow</title>
<path fill="none" stroke="black" stroke-dasharray="5,2" d="M739.67,-200.92C739.67,-186.01 739.67,-166.42 739.67,-149.76"/>
<polygon fill="black" stroke="black" points="743.17,-149.79 739.67,-139.79 736.17,-149.79 743.17,-149.79"/>
<text text-anchor="middle" x="767.79" y="-160.7" font-family="Times,serif" font-size="14.00">via Kleisli</text>
</g>
</g>
</svg>
